<?xml version="1.0" encoding="utf-8"?>
<!-- Generator: Adobe Illustrator 19.2.0, SVG Export Plug-In . SVG Version: 6.00 Build 0)  -->
<svg version="1.1" xmlns="http://www.w3.org/2000/svg" xmlns:xlink="http://www.w3.org/1999/xlink" x="0px" y="0px"
	 viewBox="0 0 800 800" style="enable-background:new 0 0 800 800;" xml:space="preserve">
<style type="text/css">
	.st0{fill:#FFFFFF;}
	.st1{opacity:0.8;fill:#FFFFFF;}
</style>
<g id="Bg">
</g>
<g id="Design">
	<g>
		<g>
			<path class="st0" d="M462.6,370.5c0.1-0.2,0.1-0.3,0.2-0.5c9.3-31.1-1.8-52.4-18.8-83.2c-7.7-14-19.1-33.1-25.5-48.1
				c-3.8-8.8-6.8-18.8-6.5-28c0.1-2,0.3-3.9,0.7-5.8c0,0,0-0.1,0-0.1s0,0,0,0c0.9-4,2.5-7.8,5.2-11.2c-18.1,1.2-35.6,9.5-47.8,22.9
				c-12.3,13.3-19.1,31.5-18.8,49.6c0.4,20.9,9.9,40.5,20.6,58.4c5.6,9.4,11.7,18.7,17.1,28.2c4.9,8.6,9.4,17.4,12.6,26.8
				c0.2,0.5,0.3,1,0.5,1.4c6.4,19.4,6.8,41.9-4.5,58.9c20.8-7.9,38.8-22.5,51.3-40.9C454.9,390.2,459.5,380.6,462.6,370.5z"/>
			<path class="st1" d="M395.4,317.1c-3.4-2.7-7.2-5.2-11.2-7.5c-2.1-1.2-4.2-2.3-6.2-3.3c-0.3-0.1-0.5-0.3-0.8-0.4c0,0,0,0-0.1,0
				c-5.1-2.4-10.3-4.5-15.4-6.1c-0.5-0.2-0.9-0.3-1.4-0.4c-24.3-7.5-45.7-9.8-74.7-27.7c0.4,12.6,2.9,25.3,7.5,37.1c0,0,0,0,0,0
				c0,0,0,0,0.1,0c0,0-0.1,0-0.1,0c8,20.5,22.3,38.2,42.1,47.5c9.2,4.4,27.6,9,37.2,12.6c1.3,0.5,2.5,1,3.7,1.6
				c8.1,3.7,15.2,9.2,20.3,16.3c4.2,5.9,8.5,12.2,10.1,19c0.7,2.8,0.9,5.6,0.5,8.6c6-16.4,10.6-33.7,9.7-51.2
				C415.9,345.8,409,328,395.4,317.1z M364.6,358.5c1.3,1.2,2.6,2.5,3.8,3.8C367.2,361,365.9,359.8,364.6,358.5z"/>
			<path class="st1" d="M325.9,338.1c-3.6,0.7-7.3,1.7-11,3c-1.9,0.7-3.8,1.4-5.6,2.2c-0.2,0.1-0.5,0.2-0.7,0.3c0,0,0,0-0.1,0
				c-4.4,1.9-8.6,4.1-12.4,6.5c-0.4,0.2-0.7,0.4-1.1,0.7c-18.3,11.4-31.7,23.8-59.2,32.5c8.2,6.8,17.8,12.2,27.9,15.8h0
				c0,0,0,0,0.1,0c0,0-0.1,0-0.1,0c17.6,6.2,36.9,6.9,53.8-0.6c7.9-3.5,21.1-12.7,28.8-16.8c1-0.5,2-1,3.1-1.5
				c6.9-3.1,14.4-4.6,21.7-3.9c6.1,0.6,12.6,1.4,17.8,4.1c2.2,1.1,4.1,2.6,5.8,4.5c-7.2-13-15.7-25.5-27.4-34.7
				C355.7,340.9,340.5,335.4,325.9,338.1z M335.4,380.8c1.5-0.1,3-0.2,4.6-0.3C338.4,380.6,336.9,380.7,335.4,380.8z"/>
			<path class="st1" d="M286,389.1c-2.2,3-4.2,6.3-6,9.7c-0.9,1.8-1.8,3.6-2.6,5.4c-0.1,0.2-0.2,0.4-0.3,0.7c0,0,0,0,0,0.1
				c-1.9,4.4-3.4,8.9-4.6,13.2c-0.1,0.4-0.2,0.8-0.3,1.2c-5.5,20.8-6.7,39.1-20.8,64.3c10.6-0.7,21.3-3.4,31.1-7.7h0c0,0,0,0,0-0.1
				c0,0,0,0.1,0,0.1c17.1-7.6,31.6-20.3,38.8-37.4c3.4-8,6.6-23.7,9.4-32c0.4-1.1,0.8-2.1,1.2-3.2c2.9-7,7.3-13.2,13.1-17.8
				c4.8-3.8,10.1-7.6,15.8-9.2c2.3-0.7,4.8-0.9,7.3-0.7c-14.1-4.5-29-7.8-43.7-6.4C309.6,370.7,294.8,377.2,286,389.1z M322.3,413.7
				c1-1.1,2-2.3,3.1-3.4C324.3,411.4,323.3,412.6,322.3,413.7z"/>
			<path class="st1" d="M300.7,459.8c0.9,3.6,2.2,7.2,3.8,10.8c0.8,1.9,1.7,3.7,2.6,5.4c0.1,0.2,0.2,0.4,0.3,0.7c0,0,0,0,0,0.1
				c2.2,4.2,4.7,8.3,7.4,11.9c0.2,0.3,0.5,0.7,0.7,1c12.7,17.4,26,29.9,36.7,56.7c6.1-8.7,10.9-18.6,13.7-29l0,0c0,0,0,0,0-0.1
				c0,0,0,0.1,0,0.1c4.9-18,4.2-37.3-4.4-53.7c-4.1-7.7-14.2-20.2-18.8-27.5c-0.6-1-1.2-1.9-1.7-2.9c-3.6-6.6-5.7-14-5.5-21.4
				c0.1-6.2,0.5-12.6,2.8-18.1c1-2.2,2.3-4.3,4-6.1c-12.4,8.1-24.3,17.5-32.6,29.8C301.3,429.8,297,445.4,300.7,459.8z M342.6,447.2
				c-0.2-1.5-0.5-3-0.7-4.5C342.2,444.2,342.4,445.7,342.6,447.2z"/>
			<path class="st0" d="M399,442c0,0,35.3-4.9,54.7-41.7c19.4-36.8,47.6,10.5,52.9,22.6c5.3,12.1-16.8-21.8-45.9,0
				C431.7,444.8,399,442,399,442z"/>
		</g>
		<circle class="st0" cx="370.3" cy="409.4" r="36.1"/>
	</g>
</g>
</svg>
