<svg id="Design" xmlns="http://www.w3.org/2000/svg" viewBox="0 0 271.54 352.65"><defs><style>.cls-1,.cls-2{fill:#fff;}.cls-2{opacity:0.8;}</style></defs><title>logo-new</title><path class="cls-1" d="M462.62,370.49c0.05-.18.1-0.35,0.15-0.52,9.32-31.08-1.77-52.38-18.79-83.16-7.72-14-19.1-33.12-25.52-48.07-3.78-8.8-6.81-18.78-6.47-28a33.59,33.59,0,0,1,.69-5.78v-0.07h0a26.44,26.44,0,0,1,5.22-11.17,71.23,71.23,0,0,0-66.63,72.45c0.4,20.88,9.9,40.48,20.6,58.41,5.63,9.43,11.67,18.7,17.14,28.23a158.65,158.65,0,0,1,12.64,26.75c0.17,0.47.32,1,.48,1.43,6.4,19.41,6.82,41.93-4.54,58.86a109.47,109.47,0,0,0,51.3-40.89A106.18,106.18,0,0,0,462.62,370.49Z" transform="translate(-235.87 -193.68)"/><path class="cls-2" d="M395.37,317.06a85.34,85.34,0,0,0-11.15-7.49q-3.15-1.77-6.22-3.28l-0.78-.38-0.07,0a120.48,120.48,0,0,0-15.37-6.07l-1.42-.44c-24.28-7.51-45.68-9.84-74.66-27.66a110.46,110.46,0,0,0,7.55,37.05h0l0.08,0-0.08,0c8,20.48,22.33,38.19,42.07,47.51,9.24,4.36,27.63,9,37.18,12.64q1.88,0.71,3.7,1.56a51.12,51.12,0,0,1,20.28,16.29c4.23,5.89,8.49,12.24,10.1,19a23.12,23.12,0,0,1,.47,8.59c6-16.42,10.59-33.71,9.73-51.17S409,328,395.37,317.06Zm-30.75,41.47q1.92,1.87,3.85,3.82Q366.53,360.39,364.61,358.53Z" transform="translate(-235.87 -193.68)"/><path class="cls-2" d="M325.91,338.07a72.41,72.41,0,0,0-11,3q-2.88,1-5.56,2.17l-0.68.29-0.06,0A102.23,102.23,0,0,0,296.18,350l-1.08.67c-18.31,11.38-31.7,23.81-59.23,32.48a93.72,93.72,0,0,0,27.94,15.76h0l0.06,0-0.06,0c17.6,6.23,36.89,6.92,53.84-.55,7.94-3.5,21.13-12.7,28.77-16.8q1.5-.81,3.05-1.51a43.39,43.39,0,0,1,21.71-3.95c6.13,0.57,12.56,1.37,17.82,4.11a19.61,19.61,0,0,1,5.77,4.47c-7.18-13-15.72-25.53-27.38-34.68S340.5,335.41,325.91,338.07Zm9.48,42.76q2.26-.19,4.59-0.34Q337.65,380.64,335.39,380.83Z" transform="translate(-235.87 -193.68)"/><path class="cls-2" d="M286,389.12a72.5,72.5,0,0,0-6,9.72q-1.39,2.73-2.55,5.39l-0.29.67,0,0.06a102.37,102.37,0,0,0-4.6,13.24l-0.32,1.22c-5.5,20.85-6.71,39.07-20.78,64.28A93.74,93.74,0,0,0,282.64,476h0l0-.07,0,0.07c17.08-7.55,31.57-20.29,38.77-37.36,3.37-8,6.65-23.74,9.39-32q0.54-1.62,1.19-3.19a43.39,43.39,0,0,1,13.08-17.78c4.84-3.8,10.07-7.63,15.78-9.24a19.62,19.62,0,0,1,7.26-.71c-14.13-4.51-29-7.78-43.72-6.42S294.82,377.17,286,389.12Zm36.25,24.59q1.51-1.69,3.1-3.4Q323.8,412,322.28,413.71Z" transform="translate(-235.87 -193.68)"/><path class="cls-2" d="M300.67,459.78a72.52,72.52,0,0,0,3.77,10.76q1.24,2.8,2.56,5.39l0.33,0.65,0,0.06a102.23,102.23,0,0,0,7.36,11.93l0.74,1c12.67,17.44,26,29.9,36.67,56.73a93.73,93.73,0,0,0,13.7-29h0l0-.06,0,0.06c4.94-18,4.24-37.29-4.44-53.66-4.06-7.66-14.19-20.16-18.83-27.48q-0.91-1.44-1.72-2.94a43.39,43.39,0,0,1-5.51-21.37c0.12-6.15.45-12.63,2.82-18.07a19.62,19.62,0,0,1,4-6.08c-12.42,8.1-24.33,17.52-32.61,29.82S297,445.42,300.67,459.78Zm42-12.55q-0.35-2.24-.67-4.55Q342.29,445,342.64,447.24Z" transform="translate(-235.87 -193.68)"/><path class="cls-1" d="M399,442s35.28-4.92,54.68-41.68,47.63,10.48,52.92,22.58-16.76-21.81-45.86,0S399,442,399,442Z" transform="translate(-235.87 -193.68)"/><circle class="cls-1" cx="134.41" cy="215.68" r="36.09"/></svg>